<?xml version="1.0" encoding="UTF-8"?>
<svg id="Camada_2" data-name="Camada 2" xmlns="http://www.w3.org/2000/svg" viewBox="0 0 206.5 229.69">
  <defs>
    <style>
      .cls-1 {
        fill: #20571d;
      }

      .cls-2 {
        fill: none;
      }

      .cls-2, .cls-3, .cls-4 {
        stroke: #fff;
        stroke-miterlimit: 10;
        stroke-width: 2.14px;
      }

      .cls-4 {
        fill: #365500;
      }
    </style>
  </defs>
  <g id="elementos">
    <g>
      <path class="cls-1" d="M40.14,219.58C1.06,197.75,13.08,93.8,56.2,55.45c2.72-2.42,49.23-44.76,97.29-45.05,6.42-.04,38.21-19.33,49.83,31.21,10.55,45.89-4.89,116.22-50.38,152.23-26.69,21.13-85.66,40.9-112.8,25.74"/>
      <path class="cls-2" d="M.53,224.93c16.46,9.26,26.04-1.09,32.31-7.29.62-.61,1.25-1.24,1.89-1.89C81.81,167.78,186.15,12.05,186.15,12.05"/>
      <line class="cls-3" x1="40.14" y1="98.56" x2="58" y2="190.4"/>
      <line class="cls-3" x1="148.56" y1="179.6" x2="58" y2="190.4"/>
      <line class="cls-3" x1="70.81" y1="59.14" x2="89.48" y2="147.74"/>
      <line class="cls-3" x1="179.77" y1="139.08" x2="89.48" y2="147.74"/>
      <line class="cls-4" x1="108.59" y1="33.95" x2="124.47" y2="100.33"/>
      <line class="cls-4" x1="193.46" y1="95.28" x2="124.47" y2="100.33"/>
      <line class="cls-4" x1="148.56" y1="21.36" x2="156.27" y2="57.24"/>
      <line class="cls-4" x1="191.82" y1="53.66" x2="156.27" y2="57.24"/>
      <path class="cls-1" d="M197.29,0c-6.78,1.55-13.56,3.1-20.34,4.65-1.97.59-3.96,1.03-5.98,1.37-.18.04-.35.08-.53.12-.98.32-2.04.54-3.13.72-2.78.64-5.57,1.27-8.35,1.91.53.33,40.52,25.74,40.52,25.74-.73-11.5-1.46-23-2.19-34.5Z"/>
      <polyline class="cls-1" points="158.97 8.76 150.59 10.48 167.59 15.03 200.29 31.14 198.25 30.91"/>
    </g>
  </g>
</svg>