<?xml version="1.0" encoding="UTF-8"?>
<svg id="Camada_2" data-name="Camada 2" xmlns="http://www.w3.org/2000/svg" viewBox="0 0 277.29 308.43">
  <defs>
    <style>
      .cls-1 {
        fill: none;
      }

      .cls-1, .cls-2, .cls-3 {
        stroke: #fff;
        stroke-miterlimit: 10;
        stroke-width: 2.88px;
      }

      .cls-4 {
        fill: #20571d;
      }

      .cls-3 {
        fill: #365500;
      }
    </style>
  </defs>
  <g id="Camada_1-2" data-name="Camada 1">
    <g>
      <path class="cls-4" d="M53.9,294.86C1.42,265.54,17.56,125.96,75.47,74.46c3.65-3.25,66.11-60.11,130.64-60.49,8.62-.05,51.31-25.96,66.91,41.91,14.17,61.63-6.57,156.06-67.65,204.41-35.85,28.38-115.02,54.92-151.47,34.56"/>
      <path class="cls-1" d="M.71,302.04c22.1,12.44,34.96-1.46,43.38-9.79.83-.82,1.67-1.67,2.53-2.54C109.86,225.3,249.97,16.18,249.97,16.18"/>
      <line class="cls-2" x1="53.9" y1="132.35" x2="77.88" y2="255.67"/>
      <line class="cls-2" x1="199.49" y1="241.18" x2="77.88" y2="255.67"/>
      <line class="cls-2" x1="95.08" y1="79.41" x2="120.16" y2="198.39"/>
      <line class="cls-2" x1="241.4" y1="186.77" x2="120.16" y2="198.39"/>
      <line class="cls-3" x1="145.82" y1="45.59" x2="167.15" y2="134.72"/>
      <line class="cls-3" x1="259.79" y1="127.94" x2="167.15" y2="134.72"/>
      <line class="cls-3" x1="199.49" y1="28.68" x2="209.85" y2="76.87"/>
      <line class="cls-3" x1="257.58" y1="72.06" x2="209.85" y2="76.87"/>
      <path class="cls-4" d="M264.93,0c-9.1,2.08-18.21,4.16-27.31,6.24-2.64.79-5.32,1.38-8.03,1.84-.24.05-.47.11-.71.16-1.32.42-2.74.73-4.2.96-3.74.85-7.48,1.71-11.21,2.56.71.45,54.41,34.56,54.41,34.56-.98-15.44-1.96-30.88-2.94-46.32Z"/>
      <polyline class="cls-4" points="213.47 11.76 202.21 14.07 225.04 20.18 268.95 41.82 266.22 41.5"/>
    </g>
  </g>
</svg>