<?xml version="1.0" encoding="UTF-8"?>
<svg id="Camada_2" data-name="Camada 2" xmlns="http://www.w3.org/2000/svg" viewBox="0 0 697.79 240.34">
  <defs>
    <style>
      .cls-1 {
        fill: #20571d;
      }

      .cls-2, .cls-3, .cls-4 {
        stroke: #fff;
        stroke-miterlimit: 10;
        stroke-width: 1.3px;
      }

      .cls-3 {
        fill: #365500;
      }

      .cls-5 {
        fill: #2b9109;
      }

      .cls-4 {
        fill: none;
      }
    </style>
  </defs>
  <g id="Camada_1-2" data-name="Camada 1">
    <path class="cls-1" d="M593.88,25.2c6.39,27.79-2.96,70.36-30.5,92.16-16.16,12.8-51.86,24.76-68.29,15.58-23.66-13.22-16.38-76.15,9.72-99.37,1.65-1.47,29.8-27.1,58.9-27.27,3.88-.02,23.13-11.71,30.17,18.9Z"/>
    <g>
      <g>
        <path class="cls-1" d="M207.85,145.71h-21.94l-23.2-65.36v-12.68h20.68V23.09h-26.52v122.63h-21.04V5.01h55.83c8.45,0,12.68,4.32,12.68,12.95v51.16c0,5.93-2.01,9.77-6.02,11.51-2.16.9-6.71,1.35-13.67,1.35l23.2,63.74Z"/>
        <path class="cls-1" d="M291.64,132.86c0,8.57-4.26,12.86-12.77,12.86h-45.67c-8.33,0-12.5-4.28-12.5-12.86V17.96c0-8.63,4.17-12.95,12.5-12.95h45.67c8.51,0,12.77,4.32,12.77,12.95v114.9ZM270.61,127.64V23.09h-28.86v104.56h28.86Z"/>
        <path class="cls-1" d="M369.68,23.62h-23.19v122.09h-20.95V23.62h-23.2V5.01h67.34v18.61Z"/>
        <path class="cls-1" d="M451.67,145.71h-20.86l-4.23-26.7h-26.34l-4.23,26.7h-20.77v-.36L402.49,4.83h22.12l27.06,140.88ZM423.62,100.94l-10.25-63.47-10.34,63.47h20.59Z"/>
      </g>
      <path class="cls-5" d="M176.65,232.8c0,4.96-2.46,7.44-7.38,7.44h-24.49c-4.89,0-7.33-2.48-7.33-7.44v-19.39h12.17v16.59h14.87v-15.96l-24.39-23.09c-1.77-1.7-2.65-3.86-2.65-6.5v-18.09c0-4.99,2.44-7.49,7.33-7.49h24.49c4.92,0,7.38,2.46,7.38,7.38v18.2h-12.17v-15.34h-14.87v14.71l24.39,22.98c1.77,1.66,2.65,3.87,2.65,6.6v19.39Z"/>
      <path class="cls-5" d="M227.04,232.8c0,4.96-2.5,7.44-7.49,7.44h-25.84c-4.92,0-7.38-2.48-7.38-7.44v-73.94h12.17v70.92h16.38v-70.92h12.17v73.94Z"/>
      <path class="cls-5" d="M275.81,232.8c0,4.96-2.46,7.44-7.38,7.44h-24.49c-4.89,0-7.33-2.48-7.33-7.44v-19.39h12.17v16.59h14.87v-15.96l-24.39-23.09c-1.77-1.7-2.65-3.86-2.65-6.5v-18.09c0-4.99,2.44-7.49,7.33-7.49h24.49c4.92,0,7.38,2.46,7.38,7.38v18.2h-12.17v-15.34h-14.87v14.71l24.39,22.98c1.77,1.66,2.65,3.87,2.65,6.6v19.39Z"/>
      <path class="cls-5" d="M320.83,169.63h-13.41v70.61h-12.11v-70.61h-13.41v-10.76h38.94v10.76Z"/>
      <path class="cls-5" d="M360.77,240.24h-33.75v-81.37h33.43v10.76h-21.27v23.76h18.3v10.55h-18.3v25.53h21.58v10.76Z"/>
      <path class="cls-5" d="M410.32,240.24h-10.66l-19.5-51.21c.52,2.5.78,4.45.78,5.88v45.34h-11.86v-81.37h10.66l19.5,50.17c-.52-2.5-.78-4.45-.78-5.88v-44.3h11.86v81.37Z"/>
      <path class="cls-5" d="M455.45,169.63h-13.41v70.61h-12.11v-70.61h-13.41v-10.76h38.94v10.76Z"/>
      <path class="cls-5" d="M502.87,240.24h-12.06l-2.44-15.44h-15.23l-2.44,15.44h-12.01v-.21l15.75-81.27h12.79l15.65,81.48ZM497.05,141.6l-15.13,13.73h-8.74v-.42l8.94-13.78h14.92v.47ZM486.65,214.34l-5.93-36.71-5.98,36.71h11.91Z"/>
      <path class="cls-5" d="M550.18,158.86l-15.6,81.48h-12.11l-15.55-81.48h12.22l9.1,55.79c.07,1.59.17,3.92.31,6.97-.03-1.59.07-3.92.31-6.97l9.15-55.79h12.17Z"/>
      <path class="cls-5" d="M590.79,240.24h-33.75v-81.37h33.43v10.76h-21.27v23.76h18.3v10.55h-18.3v25.53h21.58v10.76Z"/>
      <path class="cls-5" d="M631.09,240.24h-31.98v-81.37h12.17v70.5h19.81v10.87Z"/>
    </g>
    <path class="cls-4" d="M471.1,136.18c9.96,5.61,15.76-.66,19.56-4.41.37-.37.75-.75,1.14-1.15,28.51-29.04,91.68-123.33,91.68-123.33"/>
    <line class="cls-2" x1="495.09" y1="59.67" x2="505.9" y2="115.27"/>
    <line class="cls-2" x1="560.73" y1="108.74" x2="505.9" y2="115.27"/>
    <line class="cls-2" x1="513.65" y1="35.8" x2="524.96" y2="89.45"/>
    <line class="cls-2" x1="579.62" y1="84.21" x2="524.96" y2="89.45"/>
    <line class="cls-3" x1="536.53" y1="20.55" x2="546.14" y2="60.74"/>
    <line class="cls-3" x1="587.91" y1="57.68" x2="546.14" y2="60.74"/>
    <line class="cls-3" x1="560.73" y1="12.93" x2="565.4" y2="34.66"/>
    <line class="cls-3" x1="586.92" y1="32.49" x2="565.4" y2="34.66"/>
    <path class="cls-1" d="M590.23,0c-4.1.94-8.21,1.88-12.31,2.81-1.19.36-2.4.62-3.62.83-.11.02-.21.05-.32.07-.6.19-1.24.33-1.9.43-1.69.39-3.37.77-5.06,1.16.32.2,24.53,15.58,24.53,15.58-.44-6.96-.88-13.92-1.33-20.89Z"/>
    <polyline class="cls-1" points="567.03 5.3 561.95 6.34 572.25 9.1 592.04 18.85 590.81 18.71"/>
  </g>
</svg>