<?xml version="1.0" encoding="UTF-8"?>
<svg id="Camada_2" data-name="Camada 2" xmlns="http://www.w3.org/2000/svg" viewBox="0 0 599.95 291.15">
  <defs>
    <style>
      .cls-1, .cls-2, .cls-3 {
        stroke: #000;
        stroke-miterlimit: 10;
        stroke-width: 1.57px;
      }

      .cls-4 {
        fill: #fff;
      }

      .cls-2 {
        fill: none;
      }

      .cls-3 {
        fill: #365500;
      }
    </style>
  </defs>
  <g id="Camada_1-2" data-name="Camada 1">
    <path class="cls-4" d="M554.88,30.52c7.74,33.66-3.59,85.24-36.95,111.65-19.58,15.5-62.82,29.99-82.73,18.88-28.66-16.01-19.85-92.25,11.78-120.37,2-1.78,36.11-32.83,71.35-33.04,4.71-.03,28.03-14.18,36.55,22.89Z"/>
    <g>
      <path class="cls-4" d="M87.24,176.52h-26.57l-28.1-79.18v-15.36h25.05V27.97H25.49v148.55H0V6.07h67.64c10.24,0,15.36,5.23,15.36,15.68v61.97c0,7.19-2.43,11.84-7.3,13.94-2.61,1.09-8.13,1.63-16.56,1.63l28.1,77.22Z"/>
      <path class="cls-4" d="M188.74,160.95c0,10.38-5.16,15.57-15.46,15.57h-55.33c-10.09,0-15.14-5.19-15.14-15.57V21.76c0-10.46,5.05-15.68,15.14-15.68h55.33c10.31,0,15.46,5.23,15.46,15.68v139.19ZM163.26,154.63V27.97h-34.96v126.66h34.96Z"/>
      <path class="cls-4" d="M283.28,28.62h-28.1v147.9h-25.38V28.62h-28.1V6.07h81.57v22.55Z"/>
      <path class="cls-4" d="M382.61,176.52h-25.27l-5.12-32.35h-31.91l-5.12,32.35h-25.16v-.44L323.03,5.86h26.79l32.78,170.66ZM348.63,122.28l-12.42-76.89-12.52,76.89h24.94Z"/>
    </g>
    <path class="cls-4" d="M49.45,282.02c0,6.01-2.98,9.01-8.94,9.01H10.83c-5.92,0-8.88-3-8.88-9.01v-23.49h14.74v20.09h18.01v-19.34l-29.54-27.97c-2.14-2.06-3.21-4.68-3.21-7.87v-21.92c0-6.05,2.96-9.07,8.88-9.07h29.67c5.96,0,8.94,2.98,8.94,8.94v22.05h-14.74v-18.58h-18.01v17.83l29.54,27.84c2.14,2.02,3.21,4.68,3.21,8v23.49Z"/>
    <path class="cls-4" d="M110.48,282.02c0,6.01-3.02,9.01-9.07,9.01h-31.3c-5.96,0-8.94-3-8.94-9.01v-89.57h14.74v85.91h19.84v-85.91h14.74v89.57Z"/>
    <path class="cls-4" d="M169.56,282.02c0,6.01-2.98,9.01-8.94,9.01h-29.67c-5.92,0-8.88-3-8.88-9.01v-23.49h14.74v20.09h18.01v-19.34l-29.54-27.97c-2.14-2.06-3.21-4.68-3.21-7.87v-21.92c0-6.05,2.96-9.07,8.88-9.07h29.67c5.96,0,8.94,2.98,8.94,8.94v22.05h-14.74v-18.58h-18.01v17.83l29.54,27.84c2.14,2.02,3.21,4.68,3.21,8v23.49Z"/>
    <path class="cls-4" d="M224.11,205.49h-16.25v85.54h-14.68v-85.54h-16.25v-13.04h47.18v13.04Z"/>
    <path class="cls-4" d="M272.48,291.02h-40.88v-98.57h40.5v13.04h-25.76v28.78h22.17v12.79h-22.17v30.93h26.14v13.04Z"/>
    <path class="cls-4" d="M332.51,291.02h-12.91l-23.62-62.04c.63,3.02.95,5.4.95,7.12v54.92h-14.36v-98.57h12.91l23.62,60.78c-.63-3.02-.95-5.4-.95-7.12v-53.66h14.36v98.57Z"/>
    <path class="cls-4" d="M387.18,205.49h-16.25v85.54h-14.68v-85.54h-16.25v-13.04h47.18v13.04Z"/>
    <path class="cls-4" d="M444.62,291.02h-14.61l-2.96-18.71h-18.45l-2.96,18.71h-14.55v-.25l19.08-98.45h15.49l18.96,98.7ZM437.57,171.54l-18.33,16.63h-10.58v-.5l10.83-16.69h18.08v.57ZM424.97,259.66l-7.18-44.47-7.24,44.47h14.42Z"/>
    <path class="cls-4" d="M501.94,192.45l-18.9,98.7h-14.68l-18.83-98.7h14.8l11.02,67.58c.08,1.93.21,4.75.38,8.44-.04-1.93.08-4.74.38-8.44l11.09-67.58h14.74Z"/>
    <path class="cls-4" d="M551.14,291.02h-40.88v-98.57h40.5v13.04h-25.76v28.78h22.17v12.79h-22.17v30.93h26.14v13.04Z"/>
    <path class="cls-4" d="M599.95,291.02h-38.74v-98.57h14.74v85.41h24v13.16Z"/>
    <path class="cls-2" d="M406.14,164.97c12.07,6.79,19.1-.8,23.69-5.35.45-.45.91-.91,1.38-1.39,34.54-35.18,111.07-149.4,111.07-149.4"/>
    <line class="cls-1" x1="435.2" y1="72.29" x2="448.29" y2="139.64"/>
    <line class="cls-1" x1="514.71" y1="131.73" x2="448.29" y2="139.64"/>
    <line class="cls-1" x1="457.69" y1="43.37" x2="471.38" y2="108.36"/>
    <line class="cls-1" x1="537.61" y1="102.01" x2="471.38" y2="108.36"/>
    <line class="cls-3" x1="485.4" y1="24.9" x2="497.05" y2="73.58"/>
    <line class="cls-3" x1="547.65" y1="69.88" x2="497.05" y2="73.58"/>
    <line class="cls-3" x1="514.71" y1="15.66" x2="520.37" y2="41.98"/>
    <line class="cls-3" x1="546.44" y1="39.36" x2="520.37" y2="41.98"/>
    <path class="cls-4" d="M550.46,0c-4.97,1.14-9.94,2.27-14.92,3.41-1.44.43-2.91.75-4.39,1-.13.03-.26.06-.39.09-.72.23-1.5.4-2.3.52-2.04.47-4.08.93-6.12,1.4.39.25,29.72,18.88,29.72,18.88-.54-8.43-1.07-16.87-1.61-25.3Z"/>
    <polyline class="cls-4" points="522.35 6.43 516.2 7.69 528.67 11.02 552.65 22.84 551.16 22.67"/>
  </g>
</svg>